<svg xmlns="http://www.w3.org/2000/svg" viewBox="0 0 32 32">
  <!-- Background circle -->
  <circle cx="16" cy="16" r="15" fill="#edf4fc" stroke="#4a90e2" stroke-width="1.5"/>
  
  <!-- Stylized DE letters -->
  <g transform="translate(5.5, 8)">
    <!-- Letter D -->
    <path d="M1 1 L1 15 L8 15 C11.5 15 14 12.5 14 8 C14 3.5 11.5 1 8 1 L1 1 Z" 
          fill="#4a90e2" stroke="#3a73b5" stroke-width="0.8"/>
    <path d="M3.5 3.5 L3.5 12.5 L7.5 12.5 C9.5 12.5 11 11 11 8 C11 5 9.5 3.5 7.5 3.5 L3.5 3.5 Z" 
          fill="#edf4fc"/>
          
    <!-- Letter E -->
    <path d="M16 1 L16 15 L25 15 L25 12.5 L18.5 12.5 L18.5 9 L23 9 L23 6.5 L18.5 6.5 L18.5 3.5 L25 3.5 L25 1 L16 1 Z" 
          fill="#4a90e2" stroke="#3a73b5" stroke-width="0.8"/>
  </g>
  
  <!-- Skincare elements - stylized water drop -->
  <path d="M20 3.5 C18.5 5 17.5 6.5 17.5 8 C17.5 9.5 18.5 10.5 20 10.5 C21.5 10.5 22.5 9.5 22.5 8 C22.5 6.5 21.5 5 20 3.5 Z" 
        fill="#7aadea" stroke="#4a90e2" stroke-width="0.5"/>
  
  <!-- Small leaf accent -->
  <path d="M11 21 C12.5 22.5 14.5 23 16 22.5 C15.5 24 13.5 24.5 11 23.5 Z" 
        fill="#9dc3f0" stroke="#7aadea" stroke-width="0.5"/>
        
  <!-- Small sparkle elements -->
  <circle cx="10" cy="10" r="0.5" fill="white"/>
  <circle cx="22" cy="22" r="0.5" fill="white"/>
  
  <!-- Additional skincare element - small circular bubbles -->
  <circle cx="24" cy="13" r="1.2" fill="#c5daf7" stroke="#4a90e2" stroke-width="0.3"/>
  <circle cx="25.5" cy="15" r="0.8" fill="#c5daf7" stroke="#4a90e2" stroke-width="0.3"/>
</svg>
